<svg width="168" height="43" viewBox="0 0 168 43" fill="none" xmlns="http://www.w3.org/2000/svg">
  <defs>
    <linearGradient id="gs_grad" x1="0" y1="0" x2="1" y2="1">
      <stop offset="0" stop-color="#7C3AED"/>
      <stop offset="1" stop-color="#5044E5"/>
    </linearGradient>
  </defs>

  <g transform="translate(4 5)">
    <path d="M16.5 0.5L23.2 7.2C24 8 24.5 9.1 24.5 10.3V22.7C24.5 23.9 24 25 23.2 25.8L16.5 32.5C15.7 33.3 14.6 33.8 13.4 33.8H9.1C7.9 33.8 6.8 33.3 6 32.5L-0.7 25.8C-1.5 25 -2 23.9 -2 22.7V10.3C-2 9.1 -1.5 8 -0.7 7.2L6 0.5C6.8 -0.3 7.9 -0.8 9.1 -0.8H13.4C14.6 -0.8 15.7 -0.3 16.5 0.5Z" fill="url(#gs_grad)" opacity="0.95"/>
    <path d="M5.3 11.1C5.3 8.5 7.4 6.4 10 6.4H12.5C15.1 6.4 17.2 8.5 17.2 11.1C17.2 13.7 15.1 15.8 12.5 15.8H10C7.4 15.8 5.3 17.9 5.3 20.5C5.3 23.1 7.4 25.2 10 25.2H12.5C14.3 25.2 15.8 24.2 16.6 22.7" stroke="white" stroke-width="2.3" stroke-linecap="round" opacity="0.95"/>
  </g>

  <text x="44" y="28" font-family="Outfit, ui-sans-serif, system-ui, -apple-system, Segoe UI, Roboto, Arial" font-size="22" font-weight="700" fill="#5044E5" letter-spacing="0.2">
    GenSphere
  </text>
</svg>
